<?xml version="1.0" standalone="no"?>
<!DOCTYPE svg PUBLIC "-//W3C//DTD SVG 20010904//EN"
 "http://www.w3.org/TR/2001/REC-SVG-20010904/DTD/svg10.dtd">
<svg version="1.0" xmlns="http://www.w3.org/2000/svg"
 width="752.000000pt" height="752.000000pt" viewBox="0 0 752.000000 752.000000"
 preserveAspectRatio="xMidYMid meet">

<g transform="translate(0.000000,752.000000) scale(0.100000,-0.100000)"
fill="#000000" stroke="none">
<path d="M2359 5221 c-136 -43 -238 -157 -268 -299 -15 -74 -16 -2249 0 -2324
32 -151 151 -273 301 -308 59 -13 2677 -13 2736 0 153 36 272 160 302 315 7
39 10 155 8 332 l-3 273 -27 27 c-41 41 -100 39 -139 -5 l-29 -32 0 -280 c0
-231 -3 -287 -15 -318 -20 -47 -50 -79 -97 -103 -36 -18 -80 -19 -1368 -19
-1288 0 -1332 1 -1368 19 -47 24 -77 56 -97 103 -13 33 -15 169 -15 1158 0
989 2 1125 15 1158 20 47 50 79 97 103 36 18 80 19 1368 19 1288 0 1332 -1
1368 -19 47 -24 77 -56 97 -103 13 -32 15 -121 15 -663 l0 -625 29 -32 c39
-44 98 -46 139 -5 l27 27 3 618 c2 433 0 635 -8 677 -29 147 -125 256 -268
304 -61 21 -73 21 -1404 20 -1262 0 -1346 -1 -1399 -18z"/>
<path d="M3073 4531 c-214 -74 -270 -344 -101 -496 63 -57 129 -79 217 -73
112 8 191 61 240 160 26 51 31 73 31 132 0 93 -29 155 -99 219 -84 74 -183 95
-288 58z"/>
<path d="M4535 4139 c-109 -16 -199 -55 -280 -122 -27 -23 -164 -152 -303
-287 -139 -135 -263 -248 -275 -251 -37 -10 -69 9 -158 96 -132 129 -238 171
-373 145 -35 -6 -86 -25 -114 -41 -30 -17 -157 -131 -302 -271 l-250 -242 0
-211 c0 -199 1 -214 20 -238 12 -15 38 -31 58 -37 51 -14 2353 -14 2404 0 20
6 46 22 58 37 20 25 20 36 20 633 l0 607 -48 45 c-26 24 -67 56 -92 70 -97 56
-250 84 -365 67z"/>
</g>
</svg>
